<?xml version="1.0" standalone="no"?>
<!DOCTYPE svg PUBLIC "-//W3C//DTD SVG 20010904//EN"
 "http://www.w3.org/TR/2001/REC-SVG-20010904/DTD/svg10.dtd">
<svg version="1.0" xmlns="http://www.w3.org/2000/svg"
 width="820.000000pt" height="886.000000pt" viewBox="0 0 820.000000 886.000000"
 preserveAspectRatio="xMidYMid meet">

<g transform="translate(0.000000,886.000000) scale(0.100000,-0.100000)"
fill="#000000" stroke="none">
<path d="M3095 8385 c-248 -51 -223 -45 -590 -135 -243 -60 -402 -104 -577
-160 -15 -5 -44 -21 -63 -37 -37 -29 -174 -209 -259 -341 -100 -154 -307 -541
-373 -698 -12 -27 -38 -85 -57 -127 -20 -42 -36 -81 -36 -86 0 -20 -45 -109
-86 -168 -48 -70 -70 -135 -130 -382 l-38 -153 -66 -56 c-109 -94 -204 -198
-238 -261 -40 -76 -42 -103 -4 -60 l28 31 37 -36 c27 -25 37 -44 37 -66 0 -16
-4 -30 -9 -30 -5 0 -11 -10 -13 -22 -2 -12 -9 -23 -16 -26 -7 -2 -10 2 -6 12
5 12 2 15 -10 10 -9 -3 -16 -1 -16 6 0 6 -5 8 -11 5 -6 -4 -8 -14 -5 -24 5
-12 2 -11 -9 3 -8 11 -15 29 -15 41 0 19 -27 68 -31 55 0 -3 -2 -14 -4 -25 -2
-11 -11 -53 -20 -94 -10 -51 -12 -84 -6 -107 5 -18 6 -36 3 -40 -4 -4 -2 -4 4
-1 8 5 14 -9 19 -40 4 -26 16 -66 28 -88 21 -40 21 -45 19 -680 l-2 -639 -39
-41 c-21 -22 -47 -56 -56 -75 -10 -19 -34 -55 -54 -79 -32 -40 -36 -52 -39
-115 -2 -39 -10 -78 -17 -86 -8 -8 -19 -37 -26 -63 -6 -27 -22 -61 -35 -77
-32 -38 -126 -219 -159 -305 -29 -77 -29 -63 4 -290 12 -77 23 -159 26 -182 5
-36 14 -48 70 -95 35 -29 70 -63 77 -76 6 -13 53 -53 102 -90 50 -37 126 -98
170 -137 43 -38 104 -90 136 -115 31 -25 93 -79 138 -120 75 -71 81 -79 97
-140 23 -92 64 -204 75 -208 6 -2 8 -8 4 -13 -3 -5 2 -9 11 -9 18 0 54 -38 55
-57 0 -7 5 -13 10 -13 6 0 10 -7 10 -15 0 -22 -15 -18 -34 7 -13 19 -15 19 -7
3 5 -11 19 -29 31 -40 21 -19 21 -19 14 1 -4 11 18 -5 52 -36 33 -30 78 -68
99 -85 21 -16 46 -37 56 -47 9 -9 28 -19 41 -23 25 -8 120 -56 128 -65 7 -7
74 -30 90 -30 8 0 24 -10 36 -21 18 -16 40 -23 94 -27 47 -3 70 -1 70 6 0 6
-43 42 -95 78 -52 37 -95 74 -95 82 0 12 4 12 22 -2 38 -27 282 -188 350 -230
35 -21 111 -70 171 -109 59 -38 110 -68 112 -65 3 3 0 19 -6 36 -8 24 -24 37
-62 55 -29 14 -61 33 -72 43 -12 11 -27 20 -35 22 -8 2 -22 11 -31 22 -9 11
-19 17 -22 14 -8 -8 -56 29 -57 43 0 6 -8 9 -18 6 -10 -2 -24 3 -31 11 -8 9
-20 16 -27 16 -7 0 -20 13 -29 30 -16 31 -32 42 -21 15 9 -24 -5 -17 -36 17
-16 18 -26 27 -22 19 5 -10 3 -11 -10 -4 -10 5 -23 20 -30 34 -6 13 -20 24
-31 24 -11 0 -24 10 -30 22 -5 13 -14 22 -20 21 -5 -1 -23 11 -40 26 -16 16
-25 26 -18 22 7 -3 14 2 18 14 10 33 30 18 27 -20 l-4 -32 23 21 c31 29 42 26
34 -9 -4 -19 -3 -30 4 -30 6 0 12 10 12 23 1 15 3 17 6 6 3 -11 11 -15 24 -12
19 5 20 2 14 -33 -5 -29 -4 -35 4 -24 6 8 11 24 12 35 1 17 2 17 6 3 2 -10 11
-18 19 -18 8 0 15 -11 15 -27 2 -24 2 -25 6 -5 5 25 23 30 23 6 0 -8 4 -13 9
-9 5 3 12 1 16 -5 4 -6 11 -8 16 -4 6 3 20 -4 31 -15 11 -12 27 -21 36 -19 9
2 26 -7 39 -19 12 -13 30 -23 40 -23 10 0 24 -9 31 -21 7 -11 21 -19 30 -17
10 1 28 -8 41 -21 20 -20 22 -27 12 -48 -15 -32 -14 -38 3 -24 34 28 23 109
-34 251 -59 149 -145 238 -630 647 -111 93 -180 167 -180 191 0 29 -11 53 -21
47 -4 -3 -6 -12 -2 -20 8 -23 -21 -18 -44 7 -37 42 -40 55 -8 34 18 -12 26
-14 19 -5 -5 8 -9 20 -8 27 1 6 2 16 3 22 0 5 15 17 32 26 25 13 29 18 18 26
-10 7 -6 8 14 4 20 -5 27 -3 27 9 0 8 -5 15 -12 15 -6 0 -8 3 -4 7 4 5 13 8
19 8 17 0 21 53 6 71 -10 12 -8 17 7 29 18 14 18 14 0 15 -14 0 -16 3 -7 13 8
10 7 17 -1 25 -7 7 -8 16 -2 24 21 28 35 89 29 122 -4 20 -2 36 4 40 5 4 8 13
4 21 -3 9 1 30 8 48 7 17 12 42 10 55 -1 13 3 30 9 38 7 8 10 27 6 44 -6 34 5
38 51 16 15 -7 44 -20 63 -28 19 -9 71 -31 115 -50 281 -123 691 -269 960
-343 55 -15 125 -35 155 -45 30 -10 109 -32 175 -50 166 -43 219 -61 228 -76
4 -7 14 -11 23 -7 8 3 14 1 12 -4 -2 -5 12 -22 30 -37 41 -35 42 -55 3 -52
-17 1 -27 -2 -24 -7 3 -5 22 -7 43 -4 45 6 94 -14 111 -45 6 -13 25 -38 41
-57 16 -18 27 -39 24 -47 -3 -7 -1 -16 3 -18 5 -3 11 -35 15 -72 6 -54 11 -70
31 -86 27 -21 32 -42 13 -54 -6 -4 -8 -3 -5 3 7 11 -28 53 -43 53 -4 0 -15 3
-24 6 -11 4 -16 1 -16 -10 0 -9 7 -16 16 -16 8 0 24 -5 35 -11 20 -10 20 -11
3 -30 -10 -11 -25 -17 -33 -14 -9 3 -7 -2 6 -12 19 -17 22 -31 28 -178 4 -88
8 -268 9 -401 2 -231 3 -242 24 -269 12 -15 22 -32 22 -38 0 -6 -6 -3 -12 6
-15 20 -78 41 -78 26 0 -6 14 -15 31 -21 38 -13 36 -43 -4 -43 -34 1 -35 -8
-2 -23 l25 -12 1 -222 c1 -123 4 -250 8 -283 6 -56 8 -60 39 -69 17 -5 32 -13
32 -18 0 -8 -7 -7 -74 7 -16 3 -58 23 -92 43 -60 35 -63 39 -67 82 -3 25 -12
101 -20 170 -9 69 -21 229 -27 355 -6 127 -13 253 -15 280 -10 130 -15 321
-16 540 l0 241 30 74 c16 41 33 87 36 103 7 26 5 27 -26 26 -85 -3 -87 -5
-140 -129 -56 -131 -55 -127 -103 -235 -86 -195 -261 -607 -305 -718 -75 -189
-77 -195 -64 -217 10 -14 9 -21 -2 -30 -7 -6 -19 -10 -27 -9 -7 1 -42 -26 -76
-60 -56 -54 -62 -64 -51 -78 12 -14 11 -15 -11 -8 -22 7 -23 6 -8 -9 16 -15
21 -13 70 21 148 104 197 148 192 169 -3 12 3 39 14 60 19 37 262 620 313 749
12 33 26 64 30 69 14 17 33 -208 80 -989 25 -420 20 -386 55 -421 32 -32 41
-77 15 -72 -8 2 -36 28 -61 59 -25 31 -103 127 -175 213 -71 87 -145 176 -163
199 -51 65 -92 110 -92 102 0 -4 35 -51 78 -104 43 -53 143 -177 222 -275 152
-188 200 -242 231 -251 11 -4 19 -10 19 -15 0 -23 276 -31 1289 -39 l264 -2
56 37 c161 108 648 414 790 497 71 41 107 69 125 97 16 25 45 49 77 66 28 14
72 40 98 58 25 18 94 62 153 99 105 66 108 67 160 61 46 -5 71 0 188 41 227
79 318 133 448 265 68 69 138 169 164 235 13 34 29 47 114 97 55 31 110 57
123 58 26 0 135 57 246 128 89 57 287 241 320 298 29 50 51 129 91 330 22 107
28 167 28 259 l-1 120 -92 270 c-51 149 -105 313 -120 365 -32 109 -96 270
-153 385 l-40 80 2 185 c0 102 5 239 10 305 5 66 14 199 20 295 17 283 28 371
51 403 74 102 71 95 64 187 -15 190 -69 291 -279 519 -81 87 -85 94 -91 149
-4 31 -16 91 -27 132 -11 41 -26 99 -34 128 -18 68 -38 115 -73 172 -16 25
-47 106 -70 179 -24 74 -54 159 -68 190 -14 31 -35 85 -48 121 -12 36 -35 91
-49 123 -15 32 -53 117 -85 190 -58 135 -142 284 -273 485 -77 119 -115 153
-208 187 -152 56 -253 91 -395 135 -169 51 -622 171 -715 189 -30 5 -98 19
-150 30 -52 12 -105 21 -117 21 -14 0 -40 -19 -70 -50 l-47 -50 -321 0 c-341
0 -1175 17 -1212 25 -13 3 -37 27 -55 55 -32 48 -34 50 -78 49 -25 -1 -139
-21 -255 -44z m-287 -785 c-7 -11 -16 -16 -21 -11 -12 12 0 31 19 31 12 0 12
-3 2 -20z m2349 -942 c-3 -8 -6 -5 -6 6 -1 11 2 17 5 13 3 -3 4 -12 1 -19z
m58 2 c3 -5 -3 -10 -14 -10 -12 0 -21 5 -21 10 0 6 6 10 14 10 8 0 18 -4 21
-10z m-1162 -177 c-18 -2 -48 -2 -65 0 -18 2 -4 4 32 4 36 0 50 -2 33 -4z
m120 0 c-13 -2 -33 -2 -45 0 -13 2 -3 4 22 4 25 0 35 -2 23 -4z m74 1 c-3 -3
-12 -4 -19 -1 -8 3 -5 6 6 6 11 1 17 -2 13 -5z m338 -4 c3 -5 -1 -10 -9 -10
-9 0 -16 5 -16 10 0 6 4 10 9 10 6 0 13 -4 16 -10z m45 0 c0 -5 -7 -10 -16
-10 -8 0 -12 5 -9 10 3 6 10 10 16 10 5 0 9 -4 9 -10z m63 -7 c-7 -2 -19 -2
-25 0 -7 3 -2 5 12 5 14 0 19 -2 13 -5z m-105 -189 c95 -4 171 -9 168 -12 -6
-5 -386 -4 -781 4 -121 2 -235 4 -253 4 -18 0 -31 4 -28 8 5 9 594 6 894 -4z
m-1192 -36 c-1 -13 -5 -26 -11 -30 -7 -5 -6 -14 3 -28 17 -27 15 -75 -3 -90
-8 -7 -15 -20 -15 -29 0 -12 -4 -11 -18 7 -20 25 -32 20 -32 -13 0 -21 -17
-45 -31 -45 -12 0 -32 91 -33 148 l-1 52 -205 -6 c-113 -3 -213 -10 -222 -15
-9 -5 -24 -6 -32 -3 -9 4 -80 -1 -159 -10 -243 -28 -319 -35 -410 -42 -48 -4
-90 -10 -93 -15 -2 -4 -25 -11 -51 -15 l-46 -7 39 -13 c22 -8 97 -30 168 -49
71 -19 133 -38 138 -43 18 -18 -229 -37 -292 -24 -314 67 -301 66 -355 47 -27
-10 -95 -40 -149 -67 -60 -29 -107 -46 -118 -42 -10 3 -18 1 -18 -5 0 -6 -13
-11 -28 -11 -16 0 -53 -12 -82 -26 -116 -56 -134 -50 -47 16 28 22 57 44 62
48 8 7 85 52 155 91 8 5 29 14 45 21 17 7 39 17 50 23 11 6 32 17 48 25 15 7
27 17 27 21 0 4 10 7 23 7 12 -1 21 4 20 12 -3 14 13 16 21 3 7 -10 61 0 93
17 12 7 48 12 80 12 32 0 160 11 283 24 256 28 620 53 920 65 113 4 221 9 241
9 31 2 35 -1 35 -20z m1744 -2 c0 -2 -7 -16 -15 -32 -12 -23 -15 -25 -21 -11
-8 23 2 47 21 47 8 0 15 -2 15 -4z m-3290 -24 c0 -11 -8 -18 -20 -19 -11 -1
-20 2 -20 8 0 5 7 9 15 9 8 0 15 5 15 10 0 6 2 10 5 10 3 0 5 -8 5 -18z m2336
-419 c4 -38 1 -44 -39 -79 -43 -37 -43 -39 6 -14 39 19 58 0 37 -38 -14 -24
-23 -27 -73 -30 -36 -2 -57 1 -57 8 0 7 -7 7 -22 -1 -17 -9 -124 -13 -397 -13
l-375 -1 3 66 c2 61 1 66 -23 77 -25 11 -34 36 -18 46 5 3 100 7 212 10 111 3
205 7 207 10 3 2 124 3 270 3 l265 -2 4 -42z m-1396 -23 c0 -5 -7 -10 -16 -10
-8 0 -12 5 -9 10 3 6 10 10 16 10 5 0 9 -4 9 -10z m53 3 c-7 -2 -19 -2 -25 0
-7 3 -2 5 12 5 14 0 19 -2 13 -5z m-235 -30 c-9 -10 -18 -27 -19 -37 -2 -11
-10 -21 -16 -23 -9 -3 -11 4 -6 29 6 34 18 48 42 48 12 0 11 -3 -1 -17z m-96
-13 c-18 -11 -35 -28 -38 -38 -3 -9 -8 -23 -10 -30 -3 -10 -9 -10 -24 -2 -21
11 -21 11 6 43 28 34 47 45 79 46 15 1 12 -4 -13 -19z m308 -95 c14 -17 23
-82 11 -89 -5 -4 -8 -13 -4 -21 3 -10 -1 -15 -15 -15 -25 0 -35 -25 -21 -52 7
-12 17 -17 27 -14 15 5 15 5 1 -6 -8 -7 -20 -20 -25 -30 -9 -15 -109 -101
-168 -143 -16 -11 -56 -42 -89 -68 -34 -26 -67 -45 -75 -42 -8 3 -12 0 -10 -7
6 -16 -41 -55 -74 -63 -22 -6 -26 -3 -30 19 -4 18 -1 26 8 26 15 0 15 -1 19
49 2 18 9 37 16 42 7 4 10 11 7 15 -7 6 15 34 26 34 3 0 6 -10 6 -23 0 -25 21
-77 31 -77 4 0 9 9 12 21 3 11 15 23 26 26 21 5 30 23 11 23 -11 0 -1 30 17
48 7 7 13 22 13 32 0 28 11 50 25 50 20 0 47 37 45 62 -4 40 -1 46 22 54 29 9
47 33 48 62 0 23 -14 30 -25 12 -4 -6 -11 -8 -16 -5 -16 10 -10 41 12 61 17
16 22 16 29 4 6 -8 10 -21 10 -27 0 -16 15 -17 40 -3 15 8 23 4 41 -21 29 -42
41 -23 36 61 -3 36 -2 54 0 40 3 -14 8 -29 13 -35z m-366 -19 c-3 -8 -1 -17 5
-21 6 -3 11 -10 11 -15 0 -14 -31 -41 -41 -35 -13 9 -11 69 3 83 14 14 29 6
22 -12z m1483 -45 c51 -1 90 -22 77 -42 -3 -6 0 -16 6 -24 8 -9 8 -20 2 -31
-7 -12 -6 -26 1 -41 8 -18 7 -33 -2 -58 -6 -19 -14 -61 -16 -94 -4 -55 -3 -60
18 -64 12 -2 0 -5 -26 -6 -27 0 -46 -4 -44 -8 3 -5 97 -9 209 -11 111 -2 259
-7 328 -12 85 -6 -15 -7 -313 -5 -407 3 -440 5 -459 22 -15 13 -22 15 -25 6
-3 -7 -17 -13 -31 -13 -21 0 -24 2 -12 10 13 8 12 10 -2 10 -10 0 -18 -4 -18
-9 0 -6 -12 -6 -32 0 -18 5 -53 9 -78 9 -25 0 -54 7 -64 15 -11 8 -38 15 -60
14 -37 0 -39 -1 -16 -10 46 -19 0 -28 -136 -28 -122 0 -132 1 -137 19 -3 11
-2 20 1 20 62 2 210 12 218 15 6 2 10 24 9 52 -3 71 -4 75 -15 68 -6 -3 -22 7
-36 24 -14 17 -30 30 -36 28 -5 -1 -15 6 -21 16 -10 15 -9 21 5 31 9 6 18 21
20 31 3 17 -4 20 -44 23 -49 3 -57 9 -36 30 19 19 272 16 288 -3 10 -12 7 -17
-14 -26 -34 -16 -28 -33 13 -37 24 -3 31 0 26 9 -5 7 2 19 16 30 13 10 18 19
12 19 -7 0 -13 4 -13 9 0 15 172 19 437 12z m-1457 -40 c0 -12 -20 -25 -27
-18 -7 7 6 27 18 27 5 0 9 -4 9 -9z m-772 -43 c-3 -7 -12 -14 -21 -16 -12 -2
-15 1 -11 12 7 19 38 22 32 4z m779 6 c-3 -4 -1 -16 4 -27 10 -17 6 -25 -20
-49 -35 -32 -51 -30 -51 9 0 26 40 73 62 73 6 0 8 -3 5 -6z m-827 -14 c0 -6
-6 -21 -14 -33 -17 -28 -40 -130 -33 -148 3 -10 7 -9 13 6 4 11 11 22 15 25 4
3 9 24 10 47 3 48 24 82 40 66 6 -6 15 -45 21 -87 8 -61 7 -90 -5 -144 -8 -37
-15 -78 -16 -91 0 -13 -6 -28 -13 -32 -17 -11 -28 38 -26 113 1 32 -1 61 -5
64 -8 8 -37 -20 -38 -38 -1 -7 -5 5 -9 26 -10 54 -3 205 11 222 13 16 49 19
49 4z m-97 -42 c-7 -38 -28 -84 -43 -93 -12 -7 -43 59 -38 83 2 12 52 38 80
41 4 1 5 -14 1 -31z m1477 -8 c0 -11 -7 -20 -15 -20 -15 0 -21 21 -8 33 12 13
23 7 23 -13z m-935 -24 c24 -11 35 -21 35 -36 0 -12 4 -30 10 -40 13 -24 15
-70 5 -155 -4 -38 -7 -80 -7 -92 0 -18 -6 -23 -27 -24 -14 0 -42 -2 -61 -3
-57 -5 -80 3 -80 29 0 12 -9 34 -21 49 -17 21 -19 34 -14 67 4 22 13 43 21 46
8 3 14 16 14 28 0 13 4 26 9 29 4 3 11 23 15 45 5 36 22 54 64 70 1 1 18 -6
37 -13z m-642 -34 c25 -64 38 -122 32 -143 -10 -32 -29 -7 -27 36 1 20 -7 60
-18 88 -23 60 -23 57 -11 57 5 0 16 -17 24 -38z m1584 -24 c-3 -8 -6 -5 -6 6
-1 11 2 17 5 13 3 -3 4 -12 1 -19z m-197 -5 c0 -5 -27 -33 -61 -63 -64 -57
-67 -64 -68 -161 -1 -28 -5 -36 -18 -35 -12 1 -17 -8 -19 -30 -1 -17 -11 -41
-23 -53 -15 -15 -21 -33 -21 -67 l0 -46 70 63 c39 35 83 73 98 84 15 11 65 50
112 86 95 74 127 91 110 59 -6 -11 -20 -25 -32 -31 -12 -6 -31 -21 -43 -33
-12 -11 -35 -31 -51 -43 -15 -13 -24 -23 -19 -23 6 1 46 30 90 65 90 73 125
87 54 22 -65 -59 -289 -229 -289 -219 0 4 5 13 12 20 7 7 8 12 3 12 -6 0 -28
-17 -50 -38 -22 -20 -76 -66 -120 -101 l-79 -63 -11 33 c-17 49 -36 39 -50
-23 -3 -16 -10 -28 -16 -28 -6 0 -9 6 -6 13 3 8 8 43 12 79 6 56 10 65 25 61
23 -6 43 43 44 109 1 43 6 53 31 74 17 14 36 30 44 36 11 9 16 9 19 0 4 -13
42 -17 42 -4 0 4 -5 13 -11 19 -13 13 9 53 28 53 16 0 17 12 3 26 -15 15 145
154 177 154 7 0 13 -3 13 -7z m-1489 -26 c-5 -5 -8 -24 -5 -41 4 -26 3 -28 -6
-11 -8 16 -9 15 -4 -10 4 -16 6 -39 5 -50 -1 -11 -1 -114 -1 -230 1 -147 -2
-205 -9 -195 -9 12 -11 9 -11 -12 0 -16 5 -28 11 -28 7 0 8 -19 3 -56 -5 -40
-3 -55 4 -50 12 7 9 -85 -4 -105 -4 -8 -3 -9 4 -5 8 5 13 -2 14 -21 1 -15 2
-36 3 -45 0 -9 4 -20 8 -24 10 -10 9 -64 -2 -64 -5 0 -16 17 -24 39 -9 21 -23
46 -32 55 -41 41 -47 555 -9 788 6 42 40 91 56 82 6 -4 6 -10 -1 -17z m523
-96 c11 -10 13 -18 6 -31 -5 -10 -13 -43 -16 -74 -5 -39 -12 -60 -24 -66 -26
-14 -111 -8 -117 8 -3 7 -13 10 -24 7 -26 -9 -24 3 7 32 14 13 25 33 24 46 -7
77 -2 86 45 99 38 10 45 16 45 38 1 23 2 23 20 -11 10 -19 26 -41 34 -48z
m1156 39 c0 -11 -4 -20 -10 -20 -5 0 -10 9 -10 20 0 11 5 20 10 20 6 0 10 -9
10 -20z m1133 -41 c-8 -8 -16 -8 -30 0 -16 9 -14 10 12 11 21 0 26 -3 18 -11z
m-2613 -49 c0 -5 25 -40 55 -77 42 -54 51 -69 38 -74 -14 -5 -14 -7 1 -22 15
-15 16 -17 2 -17 -19 0 -19 -4 -4 -102 18 -119 31 -103 30 35 l-1 47 59 0 c32
0 61 -3 64 -8 2 -4 -8 -52 -23 -107 -16 -55 -45 -188 -65 -295 -59 -313 -58
-308 -46 -331 7 -11 9 -23 6 -27 -3 -3 -6 1 -6 8 0 7 -3 10 -7 6 -4 -4 -6 -27
-4 -51 l3 -45 -47 20 c-26 11 -59 20 -74 20 -35 0 -53 31 -56 97 -1 26 -5 86
-9 133 -16 228 -22 400 -18 545 3 114 18 95 26 -35 6 -85 33 -231 35 -188 1
10 12 20 27 24 21 5 25 11 21 31 -2 13 0 26 4 29 5 3 9 38 9 78 0 40 5 98 11
128 11 53 10 59 -17 115 -16 32 -30 61 -32 66 -2 4 1 7 7 7 6 0 11 -4 11 -10z
m-80 -27 c0 -16 -5 -35 -10 -43 -7 -11 -10 -4 -10 28 0 23 5 42 10 42 6 0 10
-12 10 -27z m1747 -49 c-3 -30 -2 -56 3 -59 11 -7 1 -35 -12 -35 -5 0 -6 9 -3
20 4 11 2 20 -4 20 -6 0 -11 -15 -11 -34 0 -18 -8 -44 -18 -57 -10 -13 -19
-41 -19 -62 -1 -26 -8 -45 -22 -58 -12 -11 -21 -24 -21 -29 0 -6 -4 -10 -9
-10 -5 0 -11 35 -15 78 -3 42 -9 111 -15 152 -5 46 -5 79 0 86 6 7 8 18 7 25
-2 7 6 14 17 16 16 3 17 2 5 -6 -13 -9 -13 -11 3 -11 9 0 17 4 17 9 0 11 55
18 84 12 16 -3 18 -11 13 -57z m788 54 c3 -3 0 -15 -7 -27 -10 -17 -10 -25 -1
-41 8 -12 9 -21 3 -25 -12 -8 -13 -45 -1 -45 5 0 12 12 17 28 4 16 9 21 11 12
5 -22 -32 -125 -45 -126 -7 -1 -18 -2 -24 -3 -9 -1 -8 -4 2 -11 13 -9 13 -12
-2 -24 -13 -9 -14 -16 -6 -24 9 -9 9 -24 0 -59 -21 -88 -23 -130 -11 -174 6
-24 14 -38 16 -31 3 6 9 12 14 12 6 0 8 -23 5 -55 -2 -31 0 -58 6 -61 5 -3 7
-15 4 -27 -3 -11 -1 -16 4 -11 5 5 9 38 9 74 1 36 1 76 1 89 0 35 25 69 63 85
36 15 47 7 47 -36 0 -15 5 -30 10 -33 6 -4 9 -12 8 -18 -1 -7 6 -37 16 -68 14
-44 16 -61 7 -78 -7 -11 -9 -21 -5 -21 3 0 1 -6 -5 -13 -6 -8 -8 -17 -5 -20 9
-9 -36 -77 -51 -77 -7 0 -15 -5 -17 -12 -3 -7 -14 -9 -30 -5 -21 6 -25 12 -25
44 -1 58 -2 65 -13 58 -5 -3 -10 -17 -10 -30 0 -13 -5 -27 -10 -30 -8 -5 -7
-11 1 -21 9 -11 9 -14 -1 -14 -6 0 -10 -6 -8 -12 3 -8 20 -11 46 -9 34 2 42
-1 42 -14 0 -12 -5 -15 -22 -9 -43 13 -53 10 -53 -18 1 -15 -2 -26 -5 -25 -7
3 -10 -10 -6 -25 15 -47 41 -115 48 -124 5 -6 5 -19 2 -29 -4 -9 -3 -20 2 -24
9 -6 21 -26 61 -100 16 -32 23 -58 21 -86 l-3 -40 -170 -5 c-176 -6 -199 -11
-60 -15 44 0 89 -6 100 -13 16 -9 -1 -12 -90 -14 -60 -1 -85 -3 -55 -5 101 -5
140 -13 140 -29 0 -17 33 -18 63 -2 20 10 21 10 8 -5 -12 -15 -10 -17 27 -17
23 0 44 -4 47 -10 3 -5 1 -10 -6 -10 -8 0 -8 -5 2 -16 14 -17 13 -82 -2 -100
-5 -6 -11 -30 -13 -53 -4 -41 -3 -43 39 -45 12 -1 19 -7 17 -15 -2 -8 3 -18
10 -22 18 -12 50 -11 43 1 -3 6 1 10 9 10 17 0 30 33 22 58 -7 22 22 85 35 77
5 -4 9 -23 9 -44 0 -20 4 -41 9 -47 5 -5 11 -38 13 -73 l4 -64 -354 6 c-224 3
-364 2 -381 -4 -14 -6 -42 -25 -61 -42 -19 -18 -27 -23 -17 -11 19 23 22 44 7
44 -5 0 -10 14 -10 30 0 17 4 30 9 30 5 0 11 28 13 63 3 53 0 66 -19 87 -33
36 -28 71 5 38 9 -9 12 -8 12 8 0 11 -5 25 -12 32 -9 9 -9 12 0 12 7 0 12 9
12 20 0 11 5 20 10 20 6 0 10 11 10 24 0 23 -3 24 -37 20 -21 -3 -44 -7 -50
-10 -16 -4 -17 -56 -2 -71 8 -8 8 -13 0 -18 -7 -4 -14 5 -17 24 -8 38 -27 45
-56 22 -22 -18 -22 -19 -4 -46 16 -25 17 -29 2 -43 -15 -15 -16 -15 -16 1 0
10 -9 27 -20 39 -19 21 -20 21 -20 2 0 -11 -7 -30 -16 -43 -13 -18 -18 -20
-25 -10 -20 31 -9 65 30 99 22 18 44 45 50 61 8 23 15 28 40 27 17 -1 34 2 38
5 3 4 -7 7 -24 7 -17 0 -36 7 -43 15 -10 12 15 14 196 10 114 -3 205 -3 203 0
-3 2 -53 8 -111 13 -121 10 -142 22 -140 78 1 19 5 42 10 50 5 9 4 33 -2 57
-9 31 -8 41 1 44 10 4 9 8 -2 20 -19 19 -19 34 0 27 17 -7 21 11 5 21 -5 3
-10 15 -10 25 0 10 -5 20 -12 22 -7 3 -9 11 -3 24 4 10 10 37 12 59 2 22 10
43 16 47 9 6 9 10 -2 17 -7 5 -14 23 -16 40 -1 17 -5 34 -9 38 -10 11 -7 51 5
59 8 5 6 10 -5 16 -9 5 -16 16 -16 23 0 8 -4 15 -9 15 -12 0 -24 -37 -16 -49
3 -6 -2 -14 -11 -19 -9 -5 -17 -21 -17 -35 -1 -15 -5 -27 -9 -27 -4 0 1 -16
12 -36 18 -32 19 -37 5 -51 -15 -14 -15 -13 -10 10 4 14 2 28 -4 32 -6 3 -9
11 -6 16 4 5 -5 9 -19 9 -14 0 -28 5 -31 10 -3 6 2 10 12 10 17 1 17 1 1 11
-10 5 -18 18 -18 27 -1 24 -39 -48 -40 -74 0 -26 53 -67 68 -52 7 7 9 -26 8
-103 -2 -99 0 -115 16 -131 16 -16 17 -22 7 -34 -15 -19 -14 -111 1 -129 7 -8
9 -19 5 -25 -3 -5 -1 -10 4 -10 6 0 11 -6 11 -13 0 -9 -12 -11 -39 -9 -39 4
-65 -7 -131 -54 -32 -23 -35 -24 -47 -8 -9 13 -13 60 -13 159 0 148 -6 170
-45 177 -11 2 -21 12 -22 23 -1 11 -6 34 -11 52 -6 17 -8 34 -5 37 3 2 7 26 9
53 2 27 17 76 34 111 16 34 29 66 29 70 -1 4 0 9 1 12 8 21 7 46 -2 57 -6 7
-8 27 -4 43 4 20 1 32 -7 36 -14 5 -8 118 8 144 5 8 9 26 10 40 3 58 18 140
26 140 5 0 9 -4 9 -10 0 -5 4 -10 9 -10 5 0 9 23 9 52 1 28 5 54 10 57 20 12
38 76 31 109 l-6 32 63 0 c34 0 66 -4 69 -10 3 -5 16 -10 28 -10 18 0 19 2 7
10 -10 6 9 10 60 13 118 6 478 3 485 -5z m1419 -60 c71 -63 160 -148 131 -127
-33 24 -205 170 -205 175 0 12 19 -1 74 -48z m-2613 -11 c-10 -9 -11 -8 -5 6
3 10 9 15 12 12 3 -3 0 -11 -7 -18z m-1032 -73 c2 -2 -22 -4 -55 -3 -40 0 -53
3 -39 8 18 8 84 4 94 -5z m309 -1 c-34 -9 -13 -38 31 -45 19 -2 28 -14 41 -51
17 -47 17 -48 32 -26 18 28 34 19 44 -24 3 -17 17 -56 30 -86 13 -29 24 -64
24 -77 0 -23 -2 -24 -77 -23 -97 1 -135 -8 -131 -30 3 -14 24 -16 153 -19 82
-1 154 -7 159 -12 7 -7 -64 -10 -208 -10 -188 1 -216 3 -206 16 7 8 31 15 54
16 l41 1 -44 6 c-48 7 -70 31 -27 31 13 0 28 4 31 10 3 5 -4 60 -15 122 -12
62 -24 123 -26 134 -4 23 -59 40 -93 29 -13 -4 -20 0 -24 14 -3 14 -15 21 -43
24 -22 2 31 4 116 4 85 0 147 -1 138 -4z m392 -24 c0 -17 -4 -28 -10 -24 -5 3
-10 17 -10 31 0 13 5 24 10 24 6 0 10 -14 10 -31z m2320 16 c-7 -8 -17 -12
-22 -9 -6 4 -5 10 3 15 22 14 33 10 19 -6z m-2000 -80 c-6 -8 -9 -19 -5 -25 3
-5 3 -19 0 -30 -5 -17 -8 -18 -20 -6 -8 7 -13 20 -11 29 2 19 25 47 38 47 6 0
5 -6 -2 -15z m-817 -132 c3 -39 8 -76 11 -82 4 -5 2 -12 -3 -15 -9 -6 -32 41
-37 74 -1 8 -5 22 -9 31 -3 10 -2 20 4 24 6 3 11 18 11 33 0 55 18 4 23 -65z
m2063 61 c-4 -9 -1 -23 5 -30 6 -7 8 -18 4 -24 -11 -18 -31 -11 -43 15 -6 14
-17 25 -23 25 -8 0 -8 4 1 15 18 21 64 20 56 -1z m-926 -96 c0 -19 -2 -20 -10
-8 -13 19 -13 30 0 30 6 0 10 -10 10 -22z m-521 -55 c-3 -76 6 -119 30 -147
13 -16 13 -18 1 -11 -12 6 -13 5 -2 -6 6 -7 12 -25 12 -40 0 -15 7 -32 14 -39
8 -6 20 -28 27 -48 6 -20 22 -46 36 -57 18 -15 24 -32 26 -65 2 -25 6 -50 9
-55 3 -6 9 -27 13 -48 4 -20 11 -37 16 -37 16 0 9 -58 -11 -97 -13 -26 -18
-51 -15 -78 2 -22 4 -51 4 -64 1 -18 4 -21 14 -12 8 6 17 8 20 4 4 -3 7 -1 7
5 0 7 9 12 20 12 16 0 20 -7 20 -34 0 -19 5 -38 10 -41 6 -3 10 -16 10 -29 0
-12 11 -44 24 -71 16 -31 22 -54 17 -64 -5 -9 -6 -21 -4 -27 2 -6 -5 -14 -16
-17 -23 -6 -38 10 -70 74 l-23 46 -24 -24 c-30 -30 -48 -26 -51 12 -1 15 -6
41 -12 56 -6 18 -6 31 0 34 15 10 10 25 -6 18 -9 -3 -23 3 -31 13 -15 18 -15
18 -9 -6 3 -14 8 -47 11 -75 3 -27 10 -54 15 -60 12 -12 11 -67 -1 -100 -8
-22 -15 -26 -42 -23 -24 2 -37 11 -51 36 -20 33 -20 34 2 62 25 34 25 37 9 73
-16 32 -28 34 -35 6 -4 -15 -8 -17 -14 -8 -6 10 -11 10 -22 1 -18 -15 -27 2
-27 49 0 16 -6 32 -14 35 -8 3 -16 18 -19 33 -4 18 -14 31 -28 34 -14 4 -20
11 -16 21 7 18 -1 20 -22 7 -9 -6 -11 -18 -7 -35 3 -14 2 -26 -3 -26 -5 0 -16
-3 -24 -6 -11 -4 -19 6 -27 33 -7 21 -16 42 -21 47 -5 6 -9 24 -9 41 0 33 -20
85 -33 85 -4 0 -6 -15 -4 -32 2 -18 1 -60 -3 -93 -6 -52 -4 -63 17 -93 22 -33
34 -70 47 -140 l6 -33 -30 18 c-17 9 -30 20 -30 23 0 3 -34 41 -76 85 -102
109 -123 146 -129 231 -2 38 -6 90 -9 116 -3 33 -1 47 7 45 8 -1 13 17 15 52
3 43 -1 61 -18 83 -13 17 -16 28 -8 28 7 0 5 5 -5 13 -12 8 -19 33 -24 78 -10
117 4 134 102 123 l51 -6 -1 -117 c-1 -64 -7 -154 -13 -201 -12 -84 -6 -140
15 -147 6 -2 13 18 17 47 5 34 11 50 21 50 8 0 15 -7 15 -15 0 -9 9 -15 25
-15 19 0 25 5 26 23 1 12 2 42 4 67 3 45 -11 100 -25 100 -11 0 -39 81 -42
122 -2 21 -6 38 -10 38 -5 0 -8 11 -8 25 0 22 4 25 35 25 19 0 35 -4 35 -10 0
-19 2 -25 21 -52 10 -14 19 -30 19 -36 0 -5 10 -22 22 -37 31 -40 58 -176 39
-199 -9 -11 -9 -15 1 -18 8 -3 13 -23 14 -54 2 -79 16 -155 28 -151 6 2 15 17
20 33 5 16 13 39 19 52 l11 23 9 -23 c4 -13 15 -56 22 -97 8 -41 17 -76 19
-78 34 -34 10 192 -25 242 -20 29 -27 270 -8 290 6 5 9 5 9 -3 0 -7 7 -12 15
-12 18 0 21 50 3 68 -7 7 -8 12 -2 12 5 0 10 20 10 45 1 24 -2 42 -7 39 -5 -3
-5 6 1 20 8 22 7 26 -7 26 -12 0 -2 16 32 50 27 28 51 50 53 50 2 0 2 -30 1
-67z m-169 -6 c0 -2 -10 -12 -22 -23 l-23 -19 19 23 c18 21 26 27 26 19z m705
-6 c3 -5 1 -12 -5 -16 -5 -3 -10 1 -10 9 0 18 6 21 15 7z m-675 -380 c-5 -9
-12 -25 -15 -36 -7 -20 -7 -20 -14 -1 -4 11 -4 38 0 60 5 23 9 48 9 56 0 8 7
-2 15 -24 8 -23 10 -45 5 -55z m-1046 35 c-3 -9 -10 -16 -15 -16 -5 0 -4 9 3
20 14 22 21 20 12 -4z m2668 -183 c-10 -4 -9 -9 4 -24 15 -17 15 -19 1 -25
-22 -8 -37 3 -37 29 0 17 6 23 23 24 12 0 16 -1 9 -4z m-1926 -329 c-3 -8 3
-20 14 -26 11 -7 20 -17 20 -21 0 -5 16 -27 35 -49 19 -23 32 -45 29 -49 -3
-5 1 -9 9 -9 7 0 19 -11 25 -25 6 -14 17 -25 23 -25 6 0 9 -7 6 -14 -4 -11 -1
-13 10 -9 11 4 14 2 11 -8 -3 -8 4 -24 16 -37 42 -47 82 -245 58 -296 -24 -52
-32 -78 -27 -87 3 -5 -1 -6 -9 -3 -11 4 -16 19 -16 44 0 21 -7 45 -15 54 -8 8
-15 19 -15 25 0 6 -4 11 -9 11 -4 0 -7 43 -7 95 1 52 -2 95 -6 95 -4 0 -26 37
-49 82 -22 46 -46 86 -52 90 -6 4 -20 -1 -30 -10 -14 -13 -18 -26 -14 -57 13
-111 30 -182 57 -243 17 -37 40 -100 50 -141 22 -82 24 -86 48 -86 9 0 24 -15
35 -32 19 -32 19 -33 0 -33 -33 0 -175 39 -238 65 -42 18 -64 33 -72 52 -14
28 -8 47 7 23 7 -11 11 -8 19 13 6 16 22 52 36 81 l25 53 -12 149 c-11 128
-14 265 -8 327 2 20 11 22 29 5 11 -11 13 -10 8 5 -4 11 -3 16 4 12 6 -4 8
-13 5 -21z m368 -172 c-12 -3 -13 -7 -3 -18 6 -8 9 -17 5 -21 -12 -12 -19 6
-22 59 l-4 53 19 -35 c16 -29 17 -36 5 -38z m-799 -63 c8 -35 14 -77 14 -94 0
-17 -9 6 -18 50 -10 44 -21 94 -25 110 -6 23 -5 26 3 14 6 -9 17 -45 26 -80z
m675 71 c0 -5 -4 -10 -10 -10 -5 0 -10 5 -10 10 0 6 5 10 10 10 6 0 10 -4 10
-10z m364 -145 c41 -6 72 -17 74 -25 5 -13 -11 -13 -253 7 -64 5 -84 14 -85
36 0 9 170 -2 264 -18z m-208 -58 c23 -34 39 -133 23 -142 -5 -4 -9 -13 -9
-22 0 -13 3 -13 15 -3 12 10 15 9 15 -5 0 -13 -5 -16 -22 -11 -13 3 -29 6 -37
6 -9 0 -11 7 -8 21 4 13 -2 29 -14 42 -27 29 -28 147 -1 147 9 0 27 -15 38
-33z m-809 -54 c-3 -10 -5 -4 -5 12 0 17 2 24 5 18 2 -7 2 -21 0 -30z m334
-20 c2 -18 -1 -33 -6 -33 -11 -1 -26 70 -18 84 8 13 21 -14 24 -51z m854 39
c17 -12 45 -60 45 -77 0 -17 -16 -20 -25 -5 -3 6 -15 10 -25 10 -21 0 -34 31
-25 60 7 21 14 24 30 12z m-98 -111 c33 -29 37 -41 48 -121 7 -48 9 -63 24
-125 5 -22 11 -55 15 -72 l6 -33 -45 0 c-75 0 -144 19 -156 43 -6 12 -21 32
-32 45 -18 19 -18 22 -4 22 15 0 16 11 11 113 l-7 114 24 -1 c17 -1 23 4 21
16 -2 12 2 16 12 12 8 -3 17 -1 21 5 10 18 29 13 62 -18z m153 -56 c0 -5 -5
-3 -10 5 -5 8 -10 20 -10 25 0 6 5 3 10 -5 5 -8 10 -19 10 -25z m-953 -22 c-3
-10 -5 -4 -5 12 0 17 2 24 5 18 2 -7 2 -21 0 -30z m557 1 c10 -27 7 -36 -9
-20 -8 8 -15 19 -15 25 0 17 17 13 24 -5z m56 -54 c0 -13 -1 -13 -10 0 -8 13
-10 13 -10 1 0 -11 -3 -12 -11 -4 -8 8 -8 15 2 26 15 16 29 5 29 -23z m-73 -5
c-4 -8 -2 -17 2 -20 5 -3 7 -13 4 -23 -2 -10 3 -24 11 -31 9 -8 16 -21 15 -30
0 -10 -2 -12 -6 -3 -7 18 -23 4 -23 -21 -1 -12 -10 2 -20 33 -27 74 -26 110 1
110 14 0 19 -5 16 -15z m57 -31 c9 -24 8 -26 -14 -14 -11 6 -18 15 -15 21 9
14 22 11 29 -7z m-130 -90 c10 -26 7 -32 -14 -27 -20 5 -26 23 -13 36 11 11
20 8 27 -9z m119 -28 c3 -8 16 -17 29 -19 13 -3 8 -4 -12 -4 -24 2 -36 7 -38
20 -4 20 14 23 21 3z m-1213 -106 c0 -5 -4 -10 -9 -10 -6 0 -13 5 -16 10 -3 6
1 10 9 10 9 0 16 -4 16 -10z m2307 -566 c-3 -3 -12 -4 -19 -1 -8 3 -5 6 6 6
11 1 17 -2 13 -5z m130 0 c-3 -3 -12 -4 -19 -1 -8 3 -5 6 6 6 11 1 17 -2 13
-5z m136 -1 c-7 -2 -19 -2 -25 0 -7 3 -2 5 12 5 14 0 19 -2 13 -5z m907 -23
c0 -5 -4 -10 -10 -10 -5 0 -10 5 -10 10 0 6 5 10 10 10 6 0 10 -4 10 -10z m25
-80 c3 -5 1 -10 -4 -10 -6 0 -11 5 -11 10 0 6 2 10 4 10 3 0 8 -4 11 -10z
m-1287 -125 c3 -2 -31 -4 -76 -3 -44 1 -79 5 -76 10 5 8 143 2 152 -7z m322
-5 c0 -5 -4 -10 -10 -10 -5 0 -10 5 -10 10 0 6 5 10 10 10 6 0 10 -4 10 -10z
m806 -7 c-9 -10 -238 -15 -421 -11 -11 1 -38 0 -60 -1 -58 -2 -155 5 -162 13
-3 3 141 6 322 6 181 0 325 -3 321 -7z m39 -223 c-3 -5 -10 -10 -16 -10 -5 0
-9 5 -9 10 0 6 7 10 16 10 8 0 12 -4 9 -10z m-3580 -282 c47 -71 148 -158 236
-204 17 -8 29 -18 26 -20 -2 -3 -33 10 -68 28 -72 37 -172 131 -207 196 -30
54 -23 54 13 0z m292 -40 c-3 -8 -6 -5 -6 6 -1 11 2 17 5 13 3 -3 4 -12 1 -19z
m53 -22 c0 -8 -4 -18 -10 -21 -5 -3 -10 3 -10 14 0 12 5 21 10 21 6 0 10 -6
10 -14z m-360 -36 c0 -5 -2 -10 -4 -10 -3 0 -8 5 -11 10 -3 6 -1 10 4 10 6 0
11 -4 11 -10z m410 -2 c0 -7 -5 -20 -10 -28 -8 -12 -10 -9 -10 13 0 15 5 27
10 27 6 0 10 -6 10 -12z m-366 -33 c-4 -8 -11 -12 -16 -9 -6 4 -5 10 3 15 19
12 19 11 13 -6z m47 -26 c10 -6 8 -8 -7 -7 -12 1 -21 10 -22 22 -1 15 1 17 7
7 5 -7 15 -17 22 -22z m619 -39 c0 -5 -5 -10 -11 -10 -5 0 -7 5 -4 10 3 6 8
10 11 10 2 0 4 -4 4 -10z m70 -40 c0 -5 -5 -10 -11 -10 -5 0 -7 5 -4 10 3 6 8
10 11 10 2 0 4 -4 4 -10z m2740 -408 c0 -13 -12 -22 -22 -16 -10 6 -1 24 13
24 5 0 9 -4 9 -8z m-598 -401 c-13 -8 -303 -4 -311 5 -2 2 70 4 160 4 94 0
158 -4 151 -9z m308 -18 c37 -26 69 -66 70 -85 0 -10 14 -30 30 -45 17 -14 30
-34 30 -44 0 -10 7 -25 16 -33 14 -15 14 -17 0 -22 -9 -3 -35 0 -58 7 -37 12
-46 22 -73 74 -17 33 -42 78 -55 99 -22 36 -22 39 -5 32 18 -7 18 -6 0 14 -18
19 -18 20 1 20 11 0 31 -8 44 -17z m-628 -33 c2 -6 23 -6 57 -1 74 12 452 4
466 -10 7 -7 -43 -10 -170 -8 -99 2 -214 2 -255 1 l-75 -2 -44 -60 c-24 -33
-47 -60 -52 -60 -25 0 -18 36 17 90 39 59 49 69 56 50z m223 -40 c3 -5 -3 -10
-14 -10 -12 0 -21 5 -21 10 0 6 6 10 14 10 8 0 18 -4 21 -10z m90 0 c3 -5 -1
-10 -9 -10 -9 0 -16 5 -16 10 0 6 4 10 9 10 6 0 13 -4 16 -10z m-186 -28 c8
-16 3 -18 -45 -18 -63 -1 -72 11 -14 20 27 4 39 10 34 18 -4 7 -3 8 4 4 7 -4
16 -15 21 -24z m44 21 c-7 -2 -19 -2 -25 0 -7 3 -2 5 12 5 14 0 19 -2 13 -5z
m390 -30 c38 -62 39 -63 27 -63 -7 0 -25 14 -41 31 -29 32 -53 35 -101 14 -14
-5 -18 -2 -18 14 0 20 4 22 52 25 9 1 20 4 24 9 16 15 35 6 57 -30z m529 -35
c-9 -9 -12 -7 -12 12 0 19 3 21 12 12 9 -9 9 -15 0 -24z m-22 -32 c0 -13 -7
-29 -15 -36 -13 -11 -18 -10 -29 6 -12 16 -12 21 2 36 24 24 42 22 42 -6z"/>
<path d="M3465 5700 c-3 -5 -1 -10 4 -10 6 0 11 5 11 10 0 6 -2 10 -4 10 -3 0
-8 -4 -11 -10z"/>
<path d="M3448 5653 c7 -3 16 -2 19 1 4 3 -2 6 -13 5 -11 0 -14 -3 -6 -6z"/>
<path d="M3508 5653 c7 -3 16 -2 19 1 4 3 -2 6 -13 5 -11 0 -14 -3 -6 -6z"/>
<path d="M3970 5560 c0 -5 5 -10 11 -10 5 0 7 5 4 10 -3 6 -8 10 -11 10 -2 0
-4 -4 -4 -10z"/>
<path d="M3500 5500 c0 -5 5 -10 10 -10 6 0 10 5 10 10 0 6 -4 10 -10 10 -5 0
-10 -4 -10 -10z"/>
<path d="M3427 5469 c-15 -9 -17 -18 -11 -55 5 -32 2 -50 -10 -69 -22 -34 -20
-45 10 -45 22 0 25 -4 21 -21 -4 -17 -3 -19 6 -10 6 6 19 11 28 11 22 0 33 28
18 46 -8 10 -8 14 0 14 16 0 14 21 -5 59 -12 24 -13 36 -5 44 30 30 -10 50
-52 26z"/>
<path d="M2822 5014 c-7 -8 -8 -14 -3 -14 10 0 25 19 20 25 -2 1 -10 -3 -17
-11z"/>
<path d="M2779 4983 c-13 -16 -12 -17 4 -4 16 13 21 21 13 21 -2 0 -10 -8 -17
-17z"/>
<path d="M2465 4850 c3 -5 8 -10 11 -10 2 0 4 5 4 10 0 6 -5 10 -11 10 -5 0
-7 -4 -4 -10z"/>
<path d="M1333 5030 c0 -41 2 -58 4 -37 2 20 2 54 0 75 -2 20 -4 3 -4 -38z"/>
<path d="M1333 4885 c0 -33 2 -45 4 -27 2 18 2 45 0 60 -2 15 -4 0 -4 -33z"/>
<path d="M1742 4890 c0 -19 2 -27 5 -17 2 9 2 25 0 35 -3 9 -5 1 -5 -18z"/>
<path d="M3353 5125 c0 -32 17 -44 24 -16 3 12 9 21 14 21 5 0 9 5 9 10 0 6
-11 10 -24 10 -18 0 -23 -5 -23 -25z"/>
<path d="M3418 5103 c7 -3 16 -2 19 1 4 3 -2 6 -13 5 -11 0 -14 -3 -6 -6z"/>
<path d="M3344 5067 c-9 -26 9 -42 26 -22 7 8 19 15 26 15 8 0 14 5 14 10 0
14 -27 12 -33 -2 -4 -10 -8 -9 -16 2 -8 12 -11 12 -17 -3z"/>
<path d="M3445 5051 c-3 -5 -1 -12 5 -16 5 -3 10 1 10 9 0 18 -6 21 -15 7z"/>
<path d="M3360 4777 c-15 -8 -24 -21 -23 -32 1 -11 -3 -23 -9 -26 -22 -14 -48
-252 -29 -263 6 -4 11 -1 11 8 0 9 4 16 10 16 5 0 7 7 3 16 -4 10 0 22 9 28 8
6 18 31 22 56 4 25 13 58 21 73 9 17 10 29 4 33 -6 4 -3 14 7 26 16 16 16 21
4 28 -12 8 -13 13 -2 30 14 23 7 25 -28 7z"/>
<path d="M3535 4610 c4 -6 11 -8 16 -5 14 9 11 15 -7 15 -8 0 -12 -5 -9 -10z"/>
<path d="M3236 4328 c-10 -76 4 -118 39 -118 6 0 5 4 -2 8 -7 4 -16 44 -21 87
l-8 80 -8 -57z"/>
<path d="M3234 4186 c-8 -20 -1 -66 11 -69 11 -3 15 72 3 79 -4 3 -11 -1 -14
-10z"/>
<path d="M3588 4133 c6 -2 18 -2 25 0 6 3 1 5 -13 5 -14 0 -19 -2 -12 -5z"/>
<path d="M3665 3780 c-3 -5 -1 -10 4 -10 6 0 11 5 11 10 0 6 -2 10 -4 10 -3 0
-8 -4 -11 -10z"/>
<path d="M2170 4771 c0 -16 7 -34 15 -41 13 -11 15 -8 15 13 0 32 -9 57 -21
57 -5 0 -9 -13 -9 -29z"/>
<path d="M2540 4387 c0 -2 7 -18 16 -35 13 -28 18 -30 35 -19 24 15 24 27 0
27 -10 0 -21 7 -25 15 -4 13 -26 22 -26 12z"/>
<path d="M2688 4131 c-3 -22 1 -36 14 -48 17 -15 18 -15 18 8 -1 13 -7 35 -14
48 l-13 24 -5 -32z"/>
<path d="M2700 4050 c0 -5 5 -10 10 -10 6 0 10 5 10 10 0 6 -4 10 -10 10 -5 0
-10 -4 -10 -10z"/>
<path d="M2239 3981 c-1 -12 -2 -26 -3 -33 -1 -6 5 -13 12 -15 8 -3 12 6 12
26 0 34 -19 53 -21 22z"/>
<path d="M2560 3386 c0 -9 5 -16 10 -16 6 0 10 4 10 9 0 6 -4 13 -10 16 -5 3
-10 -1 -10 -9z"/>
<path d="M1895 1301 c-3 -5 -1 -12 5 -16 5 -3 10 1 10 9 0 18 -6 21 -15 7z"/>
<path d="M1960 1255 c0 -8 2 -15 4 -15 2 0 6 7 10 15 3 8 1 15 -4 15 -6 0 -10
-7 -10 -15z"/>
<path d="M2037 1233 c-4 -3 -7 -13 -7 -22 1 -13 3 -13 11 2 11 19 8 33 -4 20z"/>
<path d="M2095 1180 c-3 -5 -2 -10 4 -10 5 0 13 5 16 10 3 6 2 10 -4 10 -5 0
-13 -4 -16 -10z"/>
</g>
</svg>
